solid OpenSCAD_Model
  facet normal -1 0 0
    outer loop
      vertex 0 0 0
      vertex 0 0 10
      vertex 0 85 0
    endloop
  endfacet
  facet normal -1 0 0
    outer loop
      vertex 0 85 0
      vertex 0 0 10
      vertex 0 85 10
    endloop
  endfacet
  facet normal 0 -1 0
    outer loop
      vertex 0 0 10
      vertex 0 0 0
      vertex 25 0 0
    endloop
  endfacet
  facet normal 0 -1 0
    outer loop
      vertex 25 0 10
      vertex 0 0 10
      vertex 25 0 0
    endloop
  endfacet
  facet normal 0 0 -1
    outer loop
      vertex 0 0 0
      vertex 0 85 0
      vertex 25 0 0
    endloop
  endfacet
  facet normal 0 0 -1
    outer loop
      vertex 25 0 0
      vertex 0 85 0
      vertex 25 85 0
    endloop
  endfacet
  facet normal 0 1 0
    outer loop
      vertex 0 85 0
      vertex 0 85 10
      vertex 25 85 0
    endloop
  endfacet
  facet normal 0 1 0
    outer loop
      vertex 25 85 0
      vertex 0 85 10
      vertex 25 85 10
    endloop
  endfacet
  facet normal 0 0 1
    outer loop
      vertex 5 5 10
      vertex 0 0 10
      vertex 25 0 10
    endloop
  endfacet
  facet normal 0 0 1
    outer loop
      vertex 20 5 10
      vertex 5 5 10
      vertex 25 0 10
    endloop
  endfacet
  facet normal 0 0 1
    outer loop
      vertex 0 85 10
      vertex 0 0 10
      vertex 5 5 10
    endloop
  endfacet
  facet normal 0 0 1
    outer loop
      vertex 5.16389 74.0593 10
      vertex 0 85 10
      vertex 5 72.5 10
    endloop
  endfacet
  facet normal 0 0 1
    outer loop
      vertex 5.64841 75.5505 10
      vertex 0 85 10
      vertex 5.16389 74.0593 10
    endloop
  endfacet
  facet normal 0 0 1
    outer loop
      vertex 6.43237 76.9084 10
      vertex 0 85 10
      vertex 5.64841 75.5505 10
    endloop
  endfacet
  facet normal 0 0 1
    outer loop
      vertex 7.48152 78.0736 10
      vertex 0 85 10
      vertex 6.43237 76.9084 10
    endloop
  endfacet
  facet normal 0 0 1
    outer loop
      vertex 8.75 78.9952 10
      vertex 0 85 10
      vertex 7.48152 78.0736 10
    endloop
  endfacet
  facet normal 0 0 1
    outer loop
      vertex 10.1824 79.6329 10
      vertex 0 85 10
      vertex 8.75 78.9952 10
    endloop
  endfacet
  facet normal 0 0 1
    outer loop
      vertex 11.716 79.9589 10
      vertex 13.284 79.9589 10
      vertex 25 85 10
    endloop
  endfacet
  facet normal 0 0 1
    outer loop
      vertex 25 85 10
      vertex 0 85 10
      vertex 10.1824 79.6329 10
    endloop
  endfacet
  facet normal 0 0 1
    outer loop
      vertex 14.8176 79.6329 10
      vertex 16.25 78.9952 10
      vertex 25 85 10
    endloop
  endfacet
  facet normal 0 0 1
    outer loop
      vertex 25 85 10
      vertex 16.25 78.9952 10
      vertex 17.5185 78.0736 10
    endloop
  endfacet
  facet normal 0 0 1
    outer loop
      vertex 25 85 10
      vertex 17.5185 78.0736 10
      vertex 18.5676 76.9084 10
    endloop
  endfacet
  facet normal 0 0 1
    outer loop
      vertex 25 85 10
      vertex 18.5676 76.9084 10
      vertex 19.3516 75.5505 10
    endloop
  endfacet
  facet normal 0 0 1
    outer loop
      vertex 25 85 10
      vertex 19.3516 75.5505 10
      vertex 19.8361 74.0593 10
    endloop
  endfacet
  facet normal 0 0 1
    outer loop
      vertex 25 85 10
      vertex 20 72.5 10
      vertex 25 0 10
    endloop
  endfacet
  facet normal 0 0 1
    outer loop
      vertex 25 85 10
      vertex 19.8361 74.0593 10
      vertex 20 72.5 10
    endloop
  endfacet
  facet normal 0 0 1
    outer loop
      vertex 10.1824 79.6329 10
      vertex 11.716 79.9589 10
      vertex 25 85 10
    endloop
  endfacet
  facet normal 0 0 1
    outer loop
      vertex 13.284 79.9589 10
      vertex 14.8176 79.6329 10
      vertex 25 85 10
    endloop
  endfacet
  facet normal 0 0 1
    outer loop
      vertex 5 5 10
      vertex 5 72.5 10
      vertex 0 85 10
    endloop
  endfacet
  facet normal 0 0 1
    outer loop
      vertex 20 72.5 10
      vertex 20 5 10
      vertex 25 0 10
    endloop
  endfacet
  facet normal 1 0 0
    outer loop
      vertex 25 0 10
      vertex 25 0 0
      vertex 25 85 0
    endloop
  endfacet
  facet normal 1 0 0
    outer loop
      vertex 25 85 10
      vertex 25 0 10
      vertex 25 85 0
    endloop
  endfacet
  facet normal 1 0 0
    outer loop
      vertex 5 72.5 5
      vertex 5 72.5 10
      vertex 5 5 10
    endloop
  endfacet
  facet normal 1 0 0
    outer loop
      vertex 5 5 5
      vertex 5 72.5 5
      vertex 5 5 10
    endloop
  endfacet
  facet normal 0 1 0
    outer loop
      vertex 20 5 10
      vertex 20 5 5
      vertex 5 5 10
    endloop
  endfacet
  facet normal 0 1 0
    outer loop
      vertex 5 5 10
      vertex 20 5 5
      vertex 5 5 5
    endloop
  endfacet
  facet normal -1 0 0
    outer loop
      vertex 20 72.5 10
      vertex 20 72.5 5
      vertex 20 5 10
    endloop
  endfacet
  facet normal -1 0 0
    outer loop
      vertex 20 5 10
      vertex 20 72.5 5
      vertex 20 5 5
    endloop
  endfacet
  facet normal -0.994522 -0.104528 0
    outer loop
      vertex 20 72.5 10
      vertex 19.8361 74.0593 10
      vertex 20 72.5 5
    endloop
  endfacet
  facet normal -0.994522 -0.104528 0
    outer loop
      vertex 20 72.5 5
      vertex 19.8361 74.0593 10
      vertex 19.8361 74.0593 5
    endloop
  endfacet
  facet normal -0.951057 -0.309017 0
    outer loop
      vertex 19.8361 74.0593 10
      vertex 19.3516 75.5505 10
      vertex 19.8361 74.0593 5
    endloop
  endfacet
  facet normal -0.951057 -0.309017 0
    outer loop
      vertex 19.8361 74.0593 5
      vertex 19.3516 75.5505 10
      vertex 19.3516 75.5505 5
    endloop
  endfacet
  facet normal -0.866025 -0.5 0
    outer loop
      vertex 19.3516 75.5505 10
      vertex 18.5676 76.9084 10
      vertex 19.3516 75.5505 5
    endloop
  endfacet
  facet normal -0.866025 -0.5 0
    outer loop
      vertex 19.3516 75.5505 5
      vertex 18.5676 76.9084 10
      vertex 18.5676 76.9084 5
    endloop
  endfacet
  facet normal -0.743145 -0.66913 0
    outer loop
      vertex 18.5676 76.9084 10
      vertex 17.5185 78.0736 10
      vertex 18.5676 76.9084 5
    endloop
  endfacet
  facet normal -0.743145 -0.66913 0
    outer loop
      vertex 18.5676 76.9084 5
      vertex 17.5185 78.0736 10
      vertex 17.5185 78.0736 5
    endloop
  endfacet
  facet normal -0.587785 -0.809017 0
    outer loop
      vertex 17.5185 78.0736 5
      vertex 17.5185 78.0736 10
      vertex 16.25 78.9952 10
    endloop
  endfacet
  facet normal -0.587785 -0.809017 0
    outer loop
      vertex 16.25 78.9952 5
      vertex 17.5185 78.0736 5
      vertex 16.25 78.9952 10
    endloop
  endfacet
  facet normal -0.406736 -0.913546 0
    outer loop
      vertex 16.25 78.9952 5
      vertex 16.25 78.9952 10
      vertex 14.8176 79.6329 10
    endloop
  endfacet
  facet normal -0.406736 -0.913546 0
    outer loop
      vertex 14.8176 79.6329 5
      vertex 16.25 78.9952 5
      vertex 14.8176 79.6329 10
    endloop
  endfacet
  facet normal -0.207911 -0.978148 0
    outer loop
      vertex 14.8176 79.6329 5
      vertex 14.8176 79.6329 10
      vertex 13.284 79.9589 10
    endloop
  endfacet
  facet normal -0.207911 -0.978148 0
    outer loop
      vertex 13.284 79.9589 5
      vertex 14.8176 79.6329 5
      vertex 13.284 79.9589 10
    endloop
  endfacet
  facet normal 0 -1 0
    outer loop
      vertex 13.284 79.9589 5
      vertex 13.284 79.9589 10
      vertex 11.716 79.9589 10
    endloop
  endfacet
  facet normal 0 -1 0
    outer loop
      vertex 11.716 79.9589 5
      vertex 13.284 79.9589 5
      vertex 11.716 79.9589 10
    endloop
  endfacet
  facet normal 0.207911 -0.978148 0
    outer loop
      vertex 11.716 79.9589 5
      vertex 11.716 79.9589 10
      vertex 10.1824 79.6329 10
    endloop
  endfacet
  facet normal 0.207911 -0.978148 0
    outer loop
      vertex 10.1824 79.6329 5
      vertex 11.716 79.9589 5
      vertex 10.1824 79.6329 10
    endloop
  endfacet
  facet normal 0.406736 -0.913546 0
    outer loop
      vertex 10.1824 79.6329 5
      vertex 10.1824 79.6329 10
      vertex 8.75 78.9952 10
    endloop
  endfacet
  facet normal 0.406736 -0.913546 0
    outer loop
      vertex 8.75 78.9952 5
      vertex 10.1824 79.6329 5
      vertex 8.75 78.9952 10
    endloop
  endfacet
  facet normal 0.587785 -0.809017 0
    outer loop
      vertex 8.75 78.9952 5
      vertex 8.75 78.9952 10
      vertex 7.48152 78.0736 10
    endloop
  endfacet
  facet normal 0.587785 -0.809017 0
    outer loop
      vertex 7.48152 78.0736 5
      vertex 8.75 78.9952 5
      vertex 7.48152 78.0736 10
    endloop
  endfacet
  facet normal 0.743145 -0.66913 0
    outer loop
      vertex 7.48152 78.0736 5
      vertex 7.48152 78.0736 10
      vertex 6.43237 76.9084 10
    endloop
  endfacet
  facet normal 0.743145 -0.66913 0
    outer loop
      vertex 6.43237 76.9084 5
      vertex 7.48152 78.0736 5
      vertex 6.43237 76.9084 10
    endloop
  endfacet
  facet normal 0.866025 -0.5 0
    outer loop
      vertex 6.43237 76.9084 5
      vertex 6.43237 76.9084 10
      vertex 5.64841 75.5505 10
    endloop
  endfacet
  facet normal 0.866025 -0.5 0
    outer loop
      vertex 5.64841 75.5505 5
      vertex 6.43237 76.9084 5
      vertex 5.64841 75.5505 10
    endloop
  endfacet
  facet normal 0.951057 -0.309017 0
    outer loop
      vertex 5.64841 75.5505 5
      vertex 5.64841 75.5505 10
      vertex 5.16389 74.0593 10
    endloop
  endfacet
  facet normal 0.951057 -0.309017 0
    outer loop
      vertex 5.16389 74.0593 5
      vertex 5.64841 75.5505 5
      vertex 5.16389 74.0593 10
    endloop
  endfacet
  facet normal 0.994522 -0.104528 0
    outer loop
      vertex 5.16389 74.0593 5
      vertex 5.16389 74.0593 10
      vertex 5 72.5 10
    endloop
  endfacet
  facet normal 0.994522 -0.104528 0
    outer loop
      vertex 5 72.5 5
      vertex 5.16389 74.0593 5
      vertex 5 72.5 10
    endloop
  endfacet
  facet normal 0 0 1
    outer loop
      vertex 20 5 5
      vertex 20 72.5 5
      vertex 19.8361 74.0593 5
    endloop
  endfacet
  facet normal 0 0 1
    outer loop
      vertex 18.5676 76.9084 5
      vertex 20 5 5
      vertex 19.3516 75.5505 5
    endloop
  endfacet
  facet normal 0 0 1
    outer loop
      vertex 19.3516 75.5505 5
      vertex 20 5 5
      vertex 19.8361 74.0593 5
    endloop
  endfacet
  facet normal 0 0 1
    outer loop
      vertex 17.5185 78.0736 5
      vertex 20 5 5
      vertex 18.5676 76.9084 5
    endloop
  endfacet
  facet normal 0 0 1
    outer loop
      vertex 16.25 78.9952 5
      vertex 20 5 5
      vertex 17.5185 78.0736 5
    endloop
  endfacet
  facet normal 0 0 1
    outer loop
      vertex 14.8176 79.6329 5
      vertex 20 5 5
      vertex 16.25 78.9952 5
    endloop
  endfacet
  facet normal 0 0 1
    outer loop
      vertex 13.284 79.9589 5
      vertex 20 5 5
      vertex 14.8176 79.6329 5
    endloop
  endfacet
  facet normal 0 0 1
    outer loop
      vertex 11.716 79.9589 5
      vertex 20 5 5
      vertex 13.284 79.9589 5
    endloop
  endfacet
  facet normal 0 0 1
    outer loop
      vertex 10.1824 79.6329 5
      vertex 20 5 5
      vertex 11.716 79.9589 5
    endloop
  endfacet
  facet normal 0 0 1
    outer loop
      vertex 8.75 78.9952 5
      vertex 20 5 5
      vertex 10.1824 79.6329 5
    endloop
  endfacet
  facet normal 0 0 1
    outer loop
      vertex 7.48152 78.0736 5
      vertex 20 5 5
      vertex 8.75 78.9952 5
    endloop
  endfacet
  facet normal 0 0 1
    outer loop
      vertex 6.43237 76.9084 5
      vertex 20 5 5
      vertex 7.48152 78.0736 5
    endloop
  endfacet
  facet normal 0 0 1
    outer loop
      vertex 5.64841 75.5505 5
      vertex 20 5 5
      vertex 6.43237 76.9084 5
    endloop
  endfacet
  facet normal 0 0 1
    outer loop
      vertex 5.16389 74.0593 5
      vertex 20 5 5
      vertex 5.64841 75.5505 5
    endloop
  endfacet
  facet normal 0 0 1
    outer loop
      vertex 5 72.5 5
      vertex 20 5 5
      vertex 5.16389 74.0593 5
    endloop
  endfacet
  facet normal 0 0 1
    outer loop
      vertex 18.7709 8.92945 5
      vertex 20 5 5
      vertex 5 72.5 5
    endloop
  endfacet
  facet normal 0 0 1
    outer loop
      vertex 5 5 5
      vertex 6.05812 8.47863 5
      vertex 5 72.5 5
    endloop
  endfacet
  facet normal 0 0 1
    outer loop
      vertex 6.05812 8.47863 5
      vertex 6.50298 9.32624 5
      vertex 5 72.5 5
    endloop
  endfacet
  facet normal 0 0 1
    outer loop
      vertex 6.50298 9.32624 5
      vertex 7.29079 9.87003 5
      vertex 5 72.5 5
    endloop
  endfacet
  facet normal 0 0 1
    outer loop
      vertex 7.29079 9.87003 5
      vertex 8.24107 9.98542 5
      vertex 5 72.5 5
    endloop
  endfacet
  facet normal 0 0 1
    outer loop
      vertex 8.24107 9.98542 5
      vertex 9.13613 9.64597 5
      vertex 5 72.5 5
    endloop
  endfacet
  facet normal 0 0 1
    outer loop
      vertex 8.24107 6.01458 5
      vertex 7.29079 6.12997 5
      vertex 5 5 5
    endloop
  endfacet
  facet normal 0 0 1
    outer loop
      vertex 9.13613 6.35403 5
      vertex 20 5 5
      vertex 9.77091 7.07055 5
    endloop
  endfacet
  facet normal 0 0 1
    outer loop
      vertex 15.0581 7.52137 5
      vertex 15.0581 8.47863 5
      vertex 14 8.5 5
    endloop
  endfacet
  facet normal 0 0 1
    outer loop
      vertex 8.24107 6.01458 5
      vertex 20 5 5
      vertex 9.13613 6.35403 5
    endloop
  endfacet
  facet normal 0 0 1
    outer loop
      vertex 17.2411 6.01458 5
      vertex 16.2908 6.12997 5
      vertex 20 5 5
    endloop
  endfacet
  facet normal 0 0 1
    outer loop
      vertex 5 5 5
      vertex 20 5 5
      vertex 8.24107 6.01458 5
    endloop
  endfacet
  facet normal 0 0 1
    outer loop
      vertex 19 8 5
      vertex 18.7709 7.07055 5
      vertex 20 5 5
    endloop
  endfacet
  facet normal 0 0 1
    outer loop
      vertex 5 5 5
      vertex 7.29079 6.12997 5
      vertex 6.50298 6.67375 5
    endloop
  endfacet
  facet normal 0 0 1
    outer loop
      vertex 5 5 5
      vertex 6.05812 7.52137 5
      vertex 6.05812 8.47863 5
    endloop
  endfacet
  facet normal 0 0 1
    outer loop
      vertex 5 5 5
      vertex 6.50298 6.67375 5
      vertex 6.05812 7.52137 5
    endloop
  endfacet
  facet normal 0 0 1
    outer loop
      vertex 9.13613 9.64597 5
      vertex 14 8.5 5
      vertex 5 72.5 5
    endloop
  endfacet
  facet normal 0 0 1
    outer loop
      vertex 16.2908 6.12997 5
      vertex 11 7 5
      vertex 20 5 5
    endloop
  endfacet
  facet normal 0 0 1
    outer loop
      vertex 10 8 5
      vertex 9.77091 7.07055 5
      vertex 11 7 5
    endloop
  endfacet
  facet normal 0 0 1
    outer loop
      vertex 9.77091 7.07055 5
      vertex 20 5 5
      vertex 11 7 5
    endloop
  endfacet
  facet normal 0 0 1
    outer loop
      vertex 14 8.5 5
      vertex 15.0581 8.47863 5
      vertex 5 72.5 5
    endloop
  endfacet
  facet normal 0 0 1
    outer loop
      vertex 15.0581 8.47863 5
      vertex 15.503 9.32624 5
      vertex 5 72.5 5
    endloop
  endfacet
  facet normal 0 0 1
    outer loop
      vertex 15.503 9.32624 5
      vertex 16.2908 9.87003 5
      vertex 5 72.5 5
    endloop
  endfacet
  facet normal 0 0 1
    outer loop
      vertex 16.2908 9.87003 5
      vertex 17.2411 9.98542 5
      vertex 5 72.5 5
    endloop
  endfacet
  facet normal 0 0 1
    outer loop
      vertex 17.2411 9.98542 5
      vertex 18.1361 9.64597 5
      vertex 5 72.5 5
    endloop
  endfacet
  facet normal 0 0 1
    outer loop
      vertex 18.1361 9.64597 5
      vertex 18.7709 8.92945 5
      vertex 5 72.5 5
    endloop
  endfacet
  facet normal 0 0 1
    outer loop
      vertex 19 8 5
      vertex 20 5 5
      vertex 18.7709 8.92945 5
    endloop
  endfacet
  facet normal 0 0 1
    outer loop
      vertex 18.7709 7.07055 5
      vertex 18.1361 6.35403 5
      vertex 20 5 5
    endloop
  endfacet
  facet normal 0 0 1
    outer loop
      vertex 18.1361 6.35403 5
      vertex 17.2411 6.01458 5
      vertex 20 5 5
    endloop
  endfacet
  facet normal 0 0 1
    outer loop
      vertex 16.2908 6.12997 5
      vertex 15.503 6.67375 5
      vertex 14 7 5
    endloop
  endfacet
  facet normal 0 0 1
    outer loop
      vertex 14 7 5
      vertex 11 7 5
      vertex 16.2908 6.12997 5
    endloop
  endfacet
  facet normal 0 0 1
    outer loop
      vertex 9.13613 9.64597 5
      vertex 9.77091 8.92945 5
      vertex 11 8.5 5
    endloop
  endfacet
  facet normal 0 0 1
    outer loop
      vertex 11 8.5 5
      vertex 14 8.5 5
      vertex 9.13613 9.64597 5
    endloop
  endfacet
  facet normal 0 0 1
    outer loop
      vertex 14 8.5 5
      vertex 15.503 6.67375 5
      vertex 15.0581 7.52137 5
    endloop
  endfacet
  facet normal 0 0 1
    outer loop
      vertex 14 8.5 5
      vertex 14 7 5
      vertex 15.503 6.67375 5
    endloop
  endfacet
  facet normal 0 0 1
    outer loop
      vertex 11 7 5
      vertex 9.77091 8.92945 5
      vertex 10 8 5
    endloop
  endfacet
  facet normal 0 0 1
    outer loop
      vertex 11 7 5
      vertex 11 8.5 5
      vertex 9.77091 8.92945 5
    endloop
  endfacet
  facet normal 1 0 0
    outer loop
      vertex 6.05812 8.47863 2
      vertex 6.05812 8.47863 5
      vertex 6.05812 7.52137 5
    endloop
  endfacet
  facet normal 1 0 0
    outer loop
      vertex 6.05812 7.52137 3
      vertex 6.05812 7.52137 2
      vertex 6.05812 8.47863 2
    endloop
  endfacet
  facet normal 1 0 0
    outer loop
      vertex 6.05812 7.52137 4
      vertex 6.05812 8.47863 2
      vertex 6.05812 7.52137 5
    endloop
  endfacet
  facet normal 1 0 0
    outer loop
      vertex 6.05812 7.52137 4
      vertex 6.05812 7.52137 3
      vertex 6.05812 8.47863 2
    endloop
  endfacet
  facet normal 0.885456 -0.464724 5.69123e-17
    outer loop
      vertex 6.50298 9.32624 2
      vertex 6.50298 9.32624 5
      vertex 6.05812 8.47863 5
    endloop
  endfacet
  facet normal 0.885456 -0.464724 5.69123e-17
    outer loop
      vertex 6.05812 8.47863 2
      vertex 6.50298 9.32624 2
      vertex 6.05812 8.47863 5
    endloop
  endfacet
  facet normal 0.885456 0.464724 -5.69123e-17
    outer loop
      vertex 6.05812 7.52137 5
      vertex 6.50298 6.67375 5
      vertex 6.50298 6.67375 4
    endloop
  endfacet
  facet normal 0.885456 0.464724 -5.69123e-17
    outer loop
      vertex 6.05812 7.52137 4
      vertex 6.05812 7.52137 5
      vertex 6.50298 6.67375 4
    endloop
  endfacet
  facet normal 0.568065 0.822984 -1.00786e-16
    outer loop
      vertex 7.29079 6.12997 5
      vertex 7.29079 6.12997 4
      vertex 6.50298 6.67375 5
    endloop
  endfacet
  facet normal 0.568065 0.822984 -1.00786e-16
    outer loop
      vertex 6.50298 6.67375 5
      vertex 7.29079 6.12997 4
      vertex 6.50298 6.67375 4
    endloop
  endfacet
  facet normal 0.120537 0.992709 -1.21572e-16
    outer loop
      vertex 8.24107 6.01458 5
      vertex 8.24107 6.01458 4
      vertex 7.29079 6.12997 5
    endloop
  endfacet
  facet normal 0.120537 0.992709 -1.21572e-16
    outer loop
      vertex 7.29079 6.12997 5
      vertex 8.24107 6.01458 4
      vertex 7.29079 6.12997 4
    endloop
  endfacet
  facet normal -0.354605 0.935016 -1.14506e-16
    outer loop
      vertex 9.13613 6.35403 5
      vertex 9.13613 6.35403 4
      vertex 8.24107 6.01458 5
    endloop
  endfacet
  facet normal -0.354605 0.935016 -1.14506e-16
    outer loop
      vertex 8.24107 6.01458 5
      vertex 9.13613 6.35403 4
      vertex 8.24107 6.01458 4
    endloop
  endfacet
  facet normal -0.748511 0.663123 -8.12091e-17
    outer loop
      vertex 9.77091 7.07055 5
      vertex 9.77091 7.07055 4
      vertex 9.13613 6.35403 5
    endloop
  endfacet
  facet normal -0.748511 0.663123 -8.12091e-17
    outer loop
      vertex 9.13613 6.35403 5
      vertex 9.77091 7.07055 4
      vertex 9.13613 6.35403 4
    endloop
  endfacet
  facet normal -0.970942 0.239316 -2.93077e-17
    outer loop
      vertex 10 8 5
      vertex 10 8 4
      vertex 9.77091 7.07055 5
    endloop
  endfacet
  facet normal -0.970942 0.239316 -2.93077e-17
    outer loop
      vertex 9.77091 7.07055 5
      vertex 10 8 4
      vertex 9.77091 7.07055 4
    endloop
  endfacet
  facet normal -0.970942 0.239316 -2.93077e-17
    outer loop
      vertex 10 8 4
      vertex 10 8 5
      vertex 10 8 3
    endloop
  endfacet
  facet normal -0.970942 0.239316 -2.93077e-17
    outer loop
      vertex 10 8 4
      vertex 10 8 3
      vertex 9.77091 7.07055 4
    endloop
  endfacet
  facet normal -0.970942 0.239316 -2.93077e-17
    outer loop
      vertex 10 8 3
      vertex 9.77091 7.07055 3
      vertex 9.77091 7.07055 4
    endloop
  endfacet
  facet normal -0.970942 0.239316 -2.93077e-17
    outer loop
      vertex 10 8 3
      vertex 10 8 5
      vertex 10 8 2
    endloop
  endfacet
  facet normal -0.970942 0.239316 -2.93077e-17
    outer loop
      vertex 10 8 3
      vertex 10 8 2
      vertex 9.77091 7.07055 3
    endloop
  endfacet
  facet normal -0.970942 0.239316 -2.93077e-17
    outer loop
      vertex 10 8 2
      vertex 9.77091 7.07055 2
      vertex 9.77091 7.07055 3
    endloop
  endfacet
  facet normal -0.970942 -0.239316 2.93077e-17
    outer loop
      vertex 10 8 5
      vertex 9.77091 8.92945 5
      vertex 10 8 2
    endloop
  endfacet
  facet normal -0.970942 -0.239316 2.93077e-17
    outer loop
      vertex 10 8 2
      vertex 9.77091 8.92945 5
      vertex 9.77091 8.92945 2
    endloop
  endfacet
  facet normal -0.748511 -0.663123 8.12091e-17
    outer loop
      vertex 9.77091 8.92945 5
      vertex 9.13613 9.64597 5
      vertex 9.77091 8.92945 2
    endloop
  endfacet
  facet normal -0.748511 -0.663123 8.12091e-17
    outer loop
      vertex 9.77091 8.92945 2
      vertex 9.13613 9.64597 5
      vertex 9.13613 9.64597 2
    endloop
  endfacet
  facet normal -0.354605 -0.935016 1.14506e-16
    outer loop
      vertex 9.13613 9.64597 2
      vertex 9.13613 9.64597 5
      vertex 8.24107 9.98542 5
    endloop
  endfacet
  facet normal -0.354605 -0.935016 1.14506e-16
    outer loop
      vertex 8.24107 9.98542 2
      vertex 9.13613 9.64597 2
      vertex 8.24107 9.98542 5
    endloop
  endfacet
  facet normal 0.120537 -0.992709 1.21572e-16
    outer loop
      vertex 8.24107 9.98542 2
      vertex 8.24107 9.98542 5
      vertex 7.29079 9.87003 5
    endloop
  endfacet
  facet normal 0.120537 -0.992709 1.21572e-16
    outer loop
      vertex 7.29079 9.87003 2
      vertex 8.24107 9.98542 2
      vertex 7.29079 9.87003 5
    endloop
  endfacet
  facet normal 0.568065 -0.822984 1.00786e-16
    outer loop
      vertex 7.29079 9.87003 2
      vertex 7.29079 9.87003 5
      vertex 6.50298 9.32624 5
    endloop
  endfacet
  facet normal 0.568065 -0.822984 1.00786e-16
    outer loop
      vertex 6.50298 9.32624 2
      vertex 7.29079 9.87003 2
      vertex 6.50298 9.32624 5
    endloop
  endfacet
  facet normal -1 0 0
    outer loop
      vertex 11 7 5
      vertex 11 7 6
      vertex 11 8.5 5
    endloop
  endfacet
  facet normal -1 0 0
    outer loop
      vertex 11 8.5 5
      vertex 11 7 6
      vertex 11 8.5 6
    endloop
  endfacet
  facet normal 0 1 0
    outer loop
      vertex 11 8.5 5
      vertex 11 8.5 6
      vertex 14 8.5 5
    endloop
  endfacet
  facet normal 0 1 0
    outer loop
      vertex 14 8.5 5
      vertex 11 8.5 6
      vertex 14 8.5 6
    endloop
  endfacet
  facet normal 0 -1 0
    outer loop
      vertex 11 7 6
      vertex 11 7 5
      vertex 14 7 5
    endloop
  endfacet
  facet normal 0 -1 0
    outer loop
      vertex 14 7 6
      vertex 11 7 6
      vertex 14 7 5
    endloop
  endfacet
  facet normal 1 0 0
    outer loop
      vertex 14 7 6
      vertex 14 7 5
      vertex 14 8.5 5
    endloop
  endfacet
  facet normal 1 0 0
    outer loop
      vertex 14 8.5 6
      vertex 14 7 6
      vertex 14 8.5 5
    endloop
  endfacet
  facet normal 1 0 0
    outer loop
      vertex 15.0581 8.47863 2
      vertex 15.0581 8.47863 5
      vertex 15.0581 7.52137 5
    endloop
  endfacet
  facet normal 1 0 0
    outer loop
      vertex 15.0581 7.52137 3
      vertex 15.0581 7.52137 2
      vertex 15.0581 8.47863 2
    endloop
  endfacet
  facet normal 1 0 0
    outer loop
      vertex 15.0581 7.52137 4
      vertex 15.0581 8.47863 2
      vertex 15.0581 7.52137 5
    endloop
  endfacet
  facet normal 1 0 0
    outer loop
      vertex 15.0581 7.52137 4
      vertex 15.0581 7.52137 3
      vertex 15.0581 8.47863 2
    endloop
  endfacet
  facet normal 0.885456 -0.464724 5.69123e-17
    outer loop
      vertex 15.503 9.32624 2
      vertex 15.503 9.32624 5
      vertex 15.0581 8.47863 5
    endloop
  endfacet
  facet normal 0.885456 -0.464724 5.69123e-17
    outer loop
      vertex 15.0581 8.47863 2
      vertex 15.503 9.32624 2
      vertex 15.0581 8.47863 5
    endloop
  endfacet
  facet normal 0.885456 0.464724 -5.69123e-17
    outer loop
      vertex 15.0581 7.52137 5
      vertex 15.503 6.67375 5
      vertex 15.503 6.67375 4
    endloop
  endfacet
  facet normal 0.885456 0.464724 -5.69123e-17
    outer loop
      vertex 15.0581 7.52137 4
      vertex 15.0581 7.52137 5
      vertex 15.503 6.67375 4
    endloop
  endfacet
  facet normal 0.568065 0.822984 -1.00786e-16
    outer loop
      vertex 16.2908 6.12997 5
      vertex 16.2908 6.12997 4
      vertex 15.503 6.67375 5
    endloop
  endfacet
  facet normal 0.568065 0.822984 -1.00786e-16
    outer loop
      vertex 15.503 6.67375 5
      vertex 16.2908 6.12997 4
      vertex 15.503 6.67375 4
    endloop
  endfacet
  facet normal 0.120537 0.992709 -1.21572e-16
    outer loop
      vertex 17.2411 6.01458 5
      vertex 17.2411 6.01458 4
      vertex 16.2908 6.12997 5
    endloop
  endfacet
  facet normal 0.120537 0.992709 -1.21572e-16
    outer loop
      vertex 16.2908 6.12997 5
      vertex 17.2411 6.01458 4
      vertex 16.2908 6.12997 4
    endloop
  endfacet
  facet normal -0.354605 0.935016 -1.14506e-16
    outer loop
      vertex 18.1361 6.35403 5
      vertex 18.1361 6.35403 4
      vertex 17.2411 6.01458 5
    endloop
  endfacet
  facet normal -0.354605 0.935016 -1.14506e-16
    outer loop
      vertex 17.2411 6.01458 5
      vertex 18.1361 6.35403 4
      vertex 17.2411 6.01458 4
    endloop
  endfacet
  facet normal -0.748511 0.663123 -8.12091e-17
    outer loop
      vertex 18.7709 7.07055 5
      vertex 18.7709 7.07055 4
      vertex 18.1361 6.35403 5
    endloop
  endfacet
  facet normal -0.748511 0.663123 -8.12091e-17
    outer loop
      vertex 18.1361 6.35403 5
      vertex 18.7709 7.07055 4
      vertex 18.1361 6.35403 4
    endloop
  endfacet
  facet normal -0.970942 0.239316 -2.93077e-17
    outer loop
      vertex 19 8 5
      vertex 19 8 4
      vertex 18.7709 7.07055 5
    endloop
  endfacet
  facet normal -0.970942 0.239316 -2.93077e-17
    outer loop
      vertex 18.7709 7.07055 5
      vertex 19 8 4
      vertex 18.7709 7.07055 4
    endloop
  endfacet
  facet normal -0.970942 0.239316 -2.93077e-17
    outer loop
      vertex 19 8 4
      vertex 19 8 5
      vertex 19 8 3
    endloop
  endfacet
  facet normal -0.970942 0.239316 -2.93077e-17
    outer loop
      vertex 19 8 4
      vertex 19 8 3
      vertex 18.7709 7.07055 4
    endloop
  endfacet
  facet normal -0.970942 0.239316 -2.93077e-17
    outer loop
      vertex 19 8 3
      vertex 18.7709 7.07055 3
      vertex 18.7709 7.07055 4
    endloop
  endfacet
  facet normal -0.970942 0.239316 -2.93077e-17
    outer loop
      vertex 19 8 3
      vertex 19 8 5
      vertex 19 8 2
    endloop
  endfacet
  facet normal -0.970942 0.239316 -2.93077e-17
    outer loop
      vertex 19 8 3
      vertex 19 8 2
      vertex 18.7709 7.07055 3
    endloop
  endfacet
  facet normal -0.970942 0.239316 -2.93077e-17
    outer loop
      vertex 19 8 2
      vertex 18.7709 7.07055 2
      vertex 18.7709 7.07055 3
    endloop
  endfacet
  facet normal -0.970942 -0.239316 2.93077e-17
    outer loop
      vertex 19 8 5
      vertex 18.7709 8.92945 5
      vertex 19 8 2
    endloop
  endfacet
  facet normal -0.970942 -0.239316 2.93077e-17
    outer loop
      vertex 19 8 2
      vertex 18.7709 8.92945 5
      vertex 18.7709 8.92945 2
    endloop
  endfacet
  facet normal -0.748511 -0.663123 8.12091e-17
    outer loop
      vertex 18.7709 8.92945 5
      vertex 18.1361 9.64597 5
      vertex 18.7709 8.92945 2
    endloop
  endfacet
  facet normal -0.748511 -0.663123 8.12091e-17
    outer loop
      vertex 18.7709 8.92945 2
      vertex 18.1361 9.64597 5
      vertex 18.1361 9.64597 2
    endloop
  endfacet
  facet normal -0.354605 -0.935016 1.14506e-16
    outer loop
      vertex 18.1361 9.64597 2
      vertex 18.1361 9.64597 5
      vertex 17.2411 9.98542 5
    endloop
  endfacet
  facet normal -0.354605 -0.935016 1.14506e-16
    outer loop
      vertex 17.2411 9.98542 2
      vertex 18.1361 9.64597 2
      vertex 17.2411 9.98542 5
    endloop
  endfacet
  facet normal 0.120537 -0.992709 1.21572e-16
    outer loop
      vertex 17.2411 9.98542 2
      vertex 17.2411 9.98542 5
      vertex 16.2908 9.87003 5
    endloop
  endfacet
  facet normal 0.120537 -0.992709 1.21572e-16
    outer loop
      vertex 16.2908 9.87003 2
      vertex 17.2411 9.98542 2
      vertex 16.2908 9.87003 5
    endloop
  endfacet
  facet normal 0.568065 -0.822984 1.00786e-16
    outer loop
      vertex 16.2908 9.87003 2
      vertex 16.2908 9.87003 5
      vertex 15.503 9.32624 5
    endloop
  endfacet
  facet normal 0.568065 -0.822984 1.00786e-16
    outer loop
      vertex 15.503 9.32624 2
      vertex 16.2908 9.87003 2
      vertex 15.503 9.32624 5
    endloop
  endfacet
  facet normal 0 1.22465e-16 1
    outer loop
      vertex 6.50298 6.67375 2
      vertex 7.29079 6.12997 2
      vertex 8.24107 6.01458 2
    endloop
  endfacet
  facet normal 0 1.22465e-16 1
    outer loop
      vertex 9.77091 7.07055 2
      vertex 6.50298 6.67375 2
      vertex 9.13613 6.35403 2
    endloop
  endfacet
  facet normal 0 1.22465e-16 1
    outer loop
      vertex 9.13613 6.35403 2
      vertex 6.50298 6.67375 2
      vertex 8.24107 6.01458 2
    endloop
  endfacet
  facet normal 0 1.22465e-16 1
    outer loop
      vertex 10 8 2
      vertex 6.50298 6.67375 2
      vertex 9.77091 7.07055 2
    endloop
  endfacet
  facet normal 0 1.22465e-16 1
    outer loop
      vertex 9.77091 8.92945 2
      vertex 6.50298 6.67375 2
      vertex 10 8 2
    endloop
  endfacet
  facet normal 0 1.22465e-16 1
    outer loop
      vertex 9.13613 9.64597 2
      vertex 6.50298 6.67375 2
      vertex 9.77091 8.92945 2
    endloop
  endfacet
  facet normal 0 1.22465e-16 1
    outer loop
      vertex 8.24107 9.98542 2
      vertex 6.50298 6.67375 2
      vertex 9.13613 9.64597 2
    endloop
  endfacet
  facet normal 0 1.22465e-16 1
    outer loop
      vertex 7.29079 9.87003 2
      vertex 6.50298 6.67375 2
      vertex 8.24107 9.98542 2
    endloop
  endfacet
  facet normal 0 1.22465e-16 1
    outer loop
      vertex 6.50298 9.32624 2
      vertex 6.50298 6.67375 2
      vertex 7.29079 9.87003 2
    endloop
  endfacet
  facet normal 0 1.22465e-16 1
    outer loop
      vertex 6.05812 8.47863 2
      vertex 6.50298 6.67375 2
      vertex 6.50298 9.32624 2
    endloop
  endfacet
  facet normal 0 1.22465e-16 1
    outer loop
      vertex 6.05812 7.52137 2
      vertex 6.50298 6.67375 2
      vertex 6.05812 8.47863 2
    endloop
  endfacet
  facet normal 0.885456 0.464724 -5.69123e-17
    outer loop
      vertex 6.05812 7.52137 3
      vertex 6.50298 6.67375 3
      vertex 6.50298 6.67375 2
    endloop
  endfacet
  facet normal 0.885456 0.464724 -5.69123e-17
    outer loop
      vertex 6.05812 7.52137 2
      vertex 6.05812 7.52137 3
      vertex 6.50298 6.67375 2
    endloop
  endfacet
  facet normal 0.885456 0.464724 -5.69123e-17
    outer loop
      vertex 6.05812 7.52137 4
      vertex 6.50298 6.67375 4
      vertex 6.50298 6.67375 3
    endloop
  endfacet
  facet normal 0.885456 0.464724 -5.69123e-17
    outer loop
      vertex 6.05812 7.52137 3
      vertex 6.05812 7.52137 4
      vertex 6.50298 6.67375 3
    endloop
  endfacet
  facet normal -0.748511 0.663123 -8.12091e-17
    outer loop
      vertex 9.77091 7.07055 4
      vertex 9.77091 7.07055 3
      vertex 9.13613 6.35403 4
    endloop
  endfacet
  facet normal -0.748511 0.663123 -8.12091e-17
    outer loop
      vertex 9.13613 6.35403 4
      vertex 9.77091 7.07055 3
      vertex 9.13613 6.35403 3
    endloop
  endfacet
  facet normal -0.748511 0.663123 -8.12091e-17
    outer loop
      vertex 9.77091 7.07055 3
      vertex 9.77091 7.07055 2
      vertex 9.13613 6.35403 3
    endloop
  endfacet
  facet normal -0.748511 0.663123 -8.12091e-17
    outer loop
      vertex 9.13613 6.35403 3
      vertex 9.77091 7.07055 2
      vertex 9.13613 6.35403 2
    endloop
  endfacet
  facet normal 0 0 1
    outer loop
      vertex 11 8.5 6
      vertex 11 7 6
      vertex 14 7 6
    endloop
  endfacet
  facet normal 0 0 1
    outer loop
      vertex 14 8.5 6
      vertex 11 8.5 6
      vertex 14 7 6
    endloop
  endfacet
  facet normal 0 1.22465e-16 1
    outer loop
      vertex 15.503 6.67375 2
      vertex 16.2908 6.12997 2
      vertex 17.2411 6.01458 2
    endloop
  endfacet
  facet normal 0 1.22465e-16 1
    outer loop
      vertex 18.7709 7.07055 2
      vertex 15.503 6.67375 2
      vertex 18.1361 6.35403 2
    endloop
  endfacet
  facet normal 0 1.22465e-16 1
    outer loop
      vertex 18.1361 6.35403 2
      vertex 15.503 6.67375 2
      vertex 17.2411 6.01458 2
    endloop
  endfacet
  facet normal 0 1.22465e-16 1
    outer loop
      vertex 19 8 2
      vertex 15.503 6.67375 2
      vertex 18.7709 7.07055 2
    endloop
  endfacet
  facet normal 0 1.22465e-16 1
    outer loop
      vertex 18.7709 8.92945 2
      vertex 15.503 6.67375 2
      vertex 19 8 2
    endloop
  endfacet
  facet normal 0 1.22465e-16 1
    outer loop
      vertex 18.1361 9.64597 2
      vertex 15.503 6.67375 2
      vertex 18.7709 8.92945 2
    endloop
  endfacet
  facet normal 0 1.22465e-16 1
    outer loop
      vertex 17.2411 9.98542 2
      vertex 15.503 6.67375 2
      vertex 18.1361 9.64597 2
    endloop
  endfacet
  facet normal 0 1.22465e-16 1
    outer loop
      vertex 16.2908 9.87003 2
      vertex 15.503 6.67375 2
      vertex 17.2411 9.98542 2
    endloop
  endfacet
  facet normal 0 1.22465e-16 1
    outer loop
      vertex 15.503 9.32624 2
      vertex 15.503 6.67375 2
      vertex 16.2908 9.87003 2
    endloop
  endfacet
  facet normal 0 1.22465e-16 1
    outer loop
      vertex 15.0581 8.47863 2
      vertex 15.503 6.67375 2
      vertex 15.503 9.32624 2
    endloop
  endfacet
  facet normal 0 1.22465e-16 1
    outer loop
      vertex 15.0581 7.52137 2
      vertex 15.503 6.67375 2
      vertex 15.0581 8.47863 2
    endloop
  endfacet
  facet normal 0.885456 0.464724 -5.69123e-17
    outer loop
      vertex 15.0581 7.52137 3
      vertex 15.503 6.67375 3
      vertex 15.503 6.67375 2
    endloop
  endfacet
  facet normal 0.885456 0.464724 -5.69123e-17
    outer loop
      vertex 15.0581 7.52137 2
      vertex 15.0581 7.52137 3
      vertex 15.503 6.67375 2
    endloop
  endfacet
  facet normal 0.885456 0.464724 -5.69123e-17
    outer loop
      vertex 15.0581 7.52137 4
      vertex 15.503 6.67375 4
      vertex 15.503 6.67375 3
    endloop
  endfacet
  facet normal 0.885456 0.464724 -5.69123e-17
    outer loop
      vertex 15.0581 7.52137 3
      vertex 15.0581 7.52137 4
      vertex 15.503 6.67375 3
    endloop
  endfacet
  facet normal -0.748511 0.663123 -8.12091e-17
    outer loop
      vertex 18.7709 7.07055 4
      vertex 18.7709 7.07055 3
      vertex 18.1361 6.35403 4
    endloop
  endfacet
  facet normal -0.748511 0.663123 -8.12091e-17
    outer loop
      vertex 18.1361 6.35403 4
      vertex 18.7709 7.07055 3
      vertex 18.1361 6.35403 3
    endloop
  endfacet
  facet normal -0.748511 0.663123 -8.12091e-17
    outer loop
      vertex 18.7709 7.07055 3
      vertex 18.7709 7.07055 2
      vertex 18.1361 6.35403 3
    endloop
  endfacet
  facet normal -0.748511 0.663123 -8.12091e-17
    outer loop
      vertex 18.1361 6.35403 3
      vertex 18.7709 7.07055 2
      vertex 18.1361 6.35403 2
    endloop
  endfacet
  facet normal 0.568065 0.822984 -1.00786e-16
    outer loop
      vertex 7.29079 6.12997 3
      vertex 7.29079 6.12997 2
      vertex 6.50298 6.67375 3
    endloop
  endfacet
  facet normal 0.568065 0.822984 -1.00786e-16
    outer loop
      vertex 6.50298 6.67375 3
      vertex 7.29079 6.12997 2
      vertex 6.50298 6.67375 2
    endloop
  endfacet
  facet normal -0.354605 0.935016 -1.14506e-16
    outer loop
      vertex 9.13613 6.35403 3
      vertex 9.13613 6.35403 2
      vertex 8.24107 6.01458 3
    endloop
  endfacet
  facet normal -0.354605 0.935016 -1.14506e-16
    outer loop
      vertex 8.24107 6.01458 3
      vertex 9.13613 6.35403 2
      vertex 8.24107 6.01458 2
    endloop
  endfacet
  facet normal 0.120537 0.992709 -1.21572e-16
    outer loop
      vertex 8.24107 6.01458 3
      vertex 8.24107 6.01458 2
      vertex 7.29079 6.12997 3
    endloop
  endfacet
  facet normal 0.120537 0.992709 -1.21572e-16
    outer loop
      vertex 7.29079 6.12997 3
      vertex 8.24107 6.01458 2
      vertex 7.29079 6.12997 2
    endloop
  endfacet
  facet normal 0.568065 0.822984 -1.00786e-16
    outer loop
      vertex 7.29079 6.12997 4
      vertex 7.29079 6.12997 3
      vertex 6.50298 6.67375 4
    endloop
  endfacet
  facet normal 0.568065 0.822984 -1.00786e-16
    outer loop
      vertex 6.50298 6.67375 4
      vertex 7.29079 6.12997 3
      vertex 6.50298 6.67375 3
    endloop
  endfacet
  facet normal -0.354605 0.935016 -1.14506e-16
    outer loop
      vertex 9.13613 6.35403 4
      vertex 9.13613 6.35403 3
      vertex 8.24107 6.01458 4
    endloop
  endfacet
  facet normal -0.354605 0.935016 -1.14506e-16
    outer loop
      vertex 8.24107 6.01458 4
      vertex 9.13613 6.35403 3
      vertex 8.24107 6.01458 3
    endloop
  endfacet
  facet normal 0.120537 0.992709 -1.21572e-16
    outer loop
      vertex 8.24107 6.01458 4
      vertex 8.24107 6.01458 3
      vertex 7.29079 6.12997 4
    endloop
  endfacet
  facet normal 0.120537 0.992709 -1.21572e-16
    outer loop
      vertex 7.29079 6.12997 4
      vertex 8.24107 6.01458 3
      vertex 7.29079 6.12997 3
    endloop
  endfacet
  facet normal 0.568065 0.822984 -1.00786e-16
    outer loop
      vertex 16.2908 6.12997 3
      vertex 16.2908 6.12997 2
      vertex 15.503 6.67375 3
    endloop
  endfacet
  facet normal 0.568065 0.822984 -1.00786e-16
    outer loop
      vertex 15.503 6.67375 3
      vertex 16.2908 6.12997 2
      vertex 15.503 6.67375 2
    endloop
  endfacet
  facet normal -0.354605 0.935016 -1.14506e-16
    outer loop
      vertex 18.1361 6.35403 3
      vertex 18.1361 6.35403 2
      vertex 17.2411 6.01458 3
    endloop
  endfacet
  facet normal -0.354605 0.935016 -1.14506e-16
    outer loop
      vertex 17.2411 6.01458 3
      vertex 18.1361 6.35403 2
      vertex 17.2411 6.01458 2
    endloop
  endfacet
  facet normal 0.120537 0.992709 -1.21572e-16
    outer loop
      vertex 17.2411 6.01458 3
      vertex 17.2411 6.01458 2
      vertex 16.2908 6.12997 3
    endloop
  endfacet
  facet normal 0.120537 0.992709 -1.21572e-16
    outer loop
      vertex 16.2908 6.12997 3
      vertex 17.2411 6.01458 2
      vertex 16.2908 6.12997 2
    endloop
  endfacet
  facet normal 0.568065 0.822984 -1.00786e-16
    outer loop
      vertex 16.2908 6.12997 4
      vertex 16.2908 6.12997 3
      vertex 15.503 6.67375 4
    endloop
  endfacet
  facet normal 0.568065 0.822984 -1.00786e-16
    outer loop
      vertex 15.503 6.67375 4
      vertex 16.2908 6.12997 3
      vertex 15.503 6.67375 3
    endloop
  endfacet
  facet normal -0.354605 0.935016 -1.14506e-16
    outer loop
      vertex 18.1361 6.35403 4
      vertex 18.1361 6.35403 3
      vertex 17.2411 6.01458 4
    endloop
  endfacet
  facet normal -0.354605 0.935016 -1.14506e-16
    outer loop
      vertex 17.2411 6.01458 4
      vertex 18.1361 6.35403 3
      vertex 17.2411 6.01458 3
    endloop
  endfacet
  facet normal 0.120537 0.992709 -1.21572e-16
    outer loop
      vertex 17.2411 6.01458 4
      vertex 17.2411 6.01458 3
      vertex 16.2908 6.12997 4
    endloop
  endfacet
  facet normal 0.120537 0.992709 -1.21572e-16
    outer loop
      vertex 16.2908 6.12997 4
      vertex 17.2411 6.01458 3
      vertex 16.2908 6.12997 3
    endloop
  endfacet
endsolid OpenSCAD_Model
